<svg width="16" height="16" viewBox="0 0 16 16" fill="none" xmlns="http://www.w3.org/2000/svg">
<path d="M9.66699 1.33301C12.4282 1.33318 14.6668 3.57184 14.667 6.33301V9.66699C14.6668 12.4282 12.4282 14.6668 9.66699 14.667H6.33301C3.57184 14.6668 1.33318 12.4282 1.33301 9.66699V6.33301C1.33318 3.57184 3.57184 1.33318 6.33301 1.33301H9.66699ZM8 4.66699C6.15905 4.66699 4.66699 6.15905 4.66699 8C4.66699 9.84095 6.15905 11.333 8 11.333C9.84095 11.333 11.333 9.84095 11.333 8C11.333 6.15905 9.84095 4.66699 8 4.66699ZM8 6C9.10457 6 10 6.89543 10 8C10 9.10457 9.10457 10 8 10C6.89543 10 6 9.10457 6 8C6 6.89543 6.89543 6 8 6ZM12 3.33301C11.6318 3.33301 11.333 3.63181 11.333 4C11.333 4.36819 11.6318 4.66699 12 4.66699C12.3682 4.66699 12.667 4.36819 12.667 4C12.667 3.63181 12.3682 3.33301 12 3.33301Z" fill="#F16336"/>
</svg>
