<svg width="32" height="32" viewBox="0 0 32 32" fill="none" xmlns="http://www.w3.org/2000/svg">
<rect x="0.5" y="0.5" width="31" height="31" rx="7.5" fill="white" stroke="white"/>
<path d="M13 23.667H10.333V14.667H13V23.667ZM17.667 14.667V15.2275C18.0839 15.0802 18.5326 15 19 15C21.2091 15 23 16.7909 23 19V23.667H20.333V19C20.333 18.2636 19.7364 17.667 19 17.667C18.2636 17.667 17.667 18.2636 17.667 19V23.667H15V14.667H17.667ZM11.667 10.333C12.4032 10.3332 13 10.9307 13 11.667C12.9998 12.4031 12.4031 12.9998 11.667 13C10.9307 13 10.3332 12.4032 10.333 11.667C10.333 10.9306 10.9306 10.333 11.667 10.333Z" fill="#F16336"/>
</svg>
