<svg width="32" height="32" viewBox="0 0 32 32" fill="none" xmlns="http://www.w3.org/2000/svg">
<rect x="0.5" y="0.5" width="31" height="31" rx="7.5" fill="white" stroke="white"/>
<path d="M21.4375 21.7406C21.3944 21.819 21.3311 21.8845 21.2542 21.9301C21.1772 21.9757 21.0895 21.9999 21 22H18C17.9158 22 17.8331 21.9787 17.7593 21.9382C17.6856 21.8976 17.6233 21.8392 17.5781 21.7681L15.0475 17.7913L11.37 21.8363C11.2804 21.9326 11.1564 21.9896 11.0249 21.9951C10.8934 22.0006 10.7651 21.9541 10.6678 21.8656C10.5704 21.7771 10.5118 21.6538 10.5048 21.5224C10.4977 21.391 10.5427 21.2622 10.63 21.1637L14.4906 16.9137L10.5781 10.7688C10.5299 10.6932 10.503 10.606 10.5 10.5164C10.4971 10.4268 10.5183 10.338 10.5614 10.2595C10.6046 10.1809 10.668 10.1153 10.7452 10.0697C10.8223 10.024 10.9103 9.99996 11 10H14C14.0842 10 14.1669 10.0213 14.2407 10.0618C14.3144 10.1024 14.3767 10.1608 14.4219 10.2319L16.9525 14.2087L20.63 10.1637C20.7196 10.0674 20.8436 10.0104 20.9751 10.0049C21.1066 9.99938 21.2349 10.0459 21.3322 10.1344C21.4296 10.2229 21.4882 10.3462 21.4952 10.4776C21.5023 10.609 21.4573 10.7378 21.37 10.8363L17.5094 15.0831L21.4219 21.2319C21.4698 21.3075 21.4965 21.3946 21.4993 21.4841C21.502 21.5736 21.4807 21.6622 21.4375 21.7406Z" fill="#F16336"/>
</svg>
