<svg width="100" height="100" viewBox="0 0 100 100" fill="none" xmlns="http://www.w3.org/2000/svg">
<circle cx="50" cy="50" r="50" fill="#F16336" fill-opacity="0.1"/>
<path d="M64.0625 31.2502H56.9805C56.1025 30.2672 55.0269 29.4808 53.824 28.9423C52.621 28.4038 51.3179 28.1255 50 28.1255C48.6821 28.1255 47.379 28.4038 46.176 28.9423C44.9731 29.4808 43.8975 30.2672 43.0195 31.2502H35.9375C35.1087 31.2502 34.3138 31.5794 33.7278 32.1655C33.1417 32.7515 32.8125 33.5464 32.8125 34.3752V67.1877C32.8125 68.0165 33.1417 68.8114 33.7278 69.3974C34.3138 69.9835 35.1087 70.3127 35.9375 70.3127H64.0625C64.8913 70.3127 65.6862 69.9835 66.2722 69.3974C66.8583 68.8114 67.1875 68.0165 67.1875 67.1877V34.3752C67.1875 33.5464 66.8583 32.7515 66.2722 32.1655C65.6862 31.5794 64.8913 31.2502 64.0625 31.2502ZM50 31.2502C51.6576 31.2502 53.2473 31.9087 54.4194 33.0808C55.5915 34.2529 56.25 35.8426 56.25 37.5002H43.75C43.75 35.8426 44.4085 34.2529 45.5806 33.0808C46.7527 31.9087 48.3424 31.2502 50 31.2502ZM56.25 56.2502H43.75C43.3356 56.2502 42.9382 56.0856 42.6451 55.7926C42.3521 55.4995 42.1875 55.1021 42.1875 54.6877C42.1875 54.2733 42.3521 53.8759 42.6451 53.5828C42.9382 53.2898 43.3356 53.1252 43.75 53.1252H56.25C56.6644 53.1252 57.0618 53.2898 57.3549 53.5828C57.6479 53.8759 57.8125 54.2733 57.8125 54.6877C57.8125 55.1021 57.6479 55.4995 57.3549 55.7926C57.0618 56.0856 56.6644 56.2502 56.25 56.2502ZM56.25 50.0002H43.75C43.3356 50.0002 42.9382 49.8356 42.6451 49.5426C42.3521 49.2495 42.1875 48.8521 42.1875 48.4377C42.1875 48.0233 42.3521 47.6259 42.6451 47.3329C42.9382 47.0398 43.3356 46.8752 43.75 46.8752H56.25C56.6644 46.8752 57.0618 47.0398 57.3549 47.3329C57.6479 47.6259 57.8125 48.0233 57.8125 48.4377C57.8125 48.8521 57.6479 49.2495 57.3549 49.5426C57.0618 49.8356 56.6644 50.0002 56.25 50.0002Z" fill="#F16336"/>
</svg>
