<svg width="100" height="100" viewBox="0 0 100 100" fill="none" xmlns="http://www.w3.org/2000/svg">
<circle cx="50" cy="50" r="50" fill="#F16336" fill-opacity="0.1"/>
<path d="M68.6875 37.92L51.5 28.5158C51.0408 28.262 50.5247 28.1289 50 28.1289C49.4753 28.1289 48.9592 28.262 48.5 28.5158L31.3125 37.924C30.8217 38.1925 30.4119 38.5879 30.1261 39.0689C29.8402 39.5499 29.6888 40.0988 29.6875 40.6583V59.338C29.6888 59.8975 29.8402 60.4464 30.1261 60.9274C30.4119 61.4084 30.8217 61.8038 31.3125 62.0724L48.5 71.4806C48.9592 71.7343 49.4753 71.8674 50 71.8674C50.5247 71.8674 51.0408 71.7343 51.5 71.4806L68.6875 62.0724C69.1783 61.8038 69.5881 61.4084 69.8739 60.9274C70.1598 60.4464 70.3112 59.8975 70.3125 59.338V40.6603C70.3123 40.0998 70.1613 39.5496 69.8754 39.0675C69.5895 38.5854 69.1792 38.1891 68.6875 37.92ZM50 48.4376L34.3066 39.8439L50 31.2501L65.6934 39.8439L50 48.4376ZM51.5625 67.8986V51.1388L67.1875 42.588V59.338L51.5625 67.8986Z" fill="#F16336"/>
</svg>
