<svg width="26" height="28" viewBox="0 0 26 28" fill="none" xmlns="http://www.w3.org/2000/svg">
<path d="M13 0C13.2492 0 13.4983 0.0549882 13.7258 0.159466L23.9254 4.55302C25.1171 5.06441 26.0054 6.25766 26 7.69835C25.9729 13.1532 23.7629 23.1335 14.43 27.6701C13.5254 28.11 12.4746 28.11 11.57 27.6701C2.2371 23.1335 0.0271079 13.1532 2.46376e-05 7.69835C-0.00539202 6.25766 0.88294 5.06441 2.0746 4.55302L12.2796 0.159466C12.5017 0.0549882 12.7508 0 13 0ZM13 3.67321V24.4588C20.475 20.7855 22.4846 12.6528 22.5333 7.77533L13 3.67321Z" fill="#F16336"/>
</svg>
