<svg width="27" height="24" viewBox="0 0 27 24" fill="none" xmlns="http://www.w3.org/2000/svg">
<path d="M14.3438 3.43203C10.1988 3.43203 6.69199 6.19049 5.5002 9.99342C7.27207 9.08286 9.2707 8.57402 11.3906 8.57402H16.0312C16.4953 8.57402 16.875 8.95967 16.875 9.43102C16.875 9.90237 16.4953 10.288 16.0312 10.288H15.1875H11.3906C10.5152 10.288 9.66621 10.3898 8.84883 10.5773C7.48301 10.8933 6.21211 11.4557 5.08359 12.2216C2.01973 14.2945 0 17.835 0 21.8575V22.7145C0 23.4269 0.564258 24 1.26562 24C1.96699 24 2.53125 23.4269 2.53125 22.7145V21.8575C2.53125 19.249 3.62285 16.903 5.36836 15.2586C6.4125 19.3026 10.0354 22.286 14.3438 22.286H14.3965C21.3627 22.2485 27 15.2747 27 6.67791C27 4.39615 26.6045 2.22687 25.8873 0.271844C25.7502 -0.0977365 25.2176 -0.0816677 25.033 0.266488C24.0416 2.15189 22.0799 3.43203 19.8281 3.43203H14.3438Z" fill="#F16336"/>
</svg>
