<svg width="60" height="60" viewBox="0 0 60 60" fill="none" xmlns="http://www.w3.org/2000/svg">
<circle cx="30" cy="30" r="30" fill="#F16336"/>
<path d="M22.0195 28.0469C22.0195 29.8359 21.4336 31.207 20.2617 32.1602C19.0898 33.1133 17.4219 33.5898 15.2578 33.5898H13.4766V40H10.6758V22.8672H15.6094C17.75 22.8672 19.3516 23.3047 20.4141 24.1797C21.4844 25.0547 22.0195 26.3438 22.0195 28.0469ZM13.4766 31.2344H14.9648C16.4023 31.2344 17.457 30.9844 18.1289 30.4844C18.8008 29.9844 19.1367 29.2031 19.1367 28.1406C19.1367 27.1562 18.8359 26.4219 18.2344 25.9375C17.6328 25.4531 16.6953 25.2109 15.4219 25.2109H13.4766V31.2344ZM32.7305 25.0234C31.1211 25.0234 29.8555 25.5938 28.9336 26.7344C28.0117 27.875 27.5508 29.4492 27.5508 31.457C27.5508 33.5586 27.9922 35.1484 28.875 36.2266C29.7656 37.3047 31.0508 37.8438 32.7305 37.8438C33.457 37.8438 34.1602 37.7734 34.8398 37.6328C35.5195 37.4844 36.2266 37.2969 36.9609 37.0703V39.4727C35.6172 39.9805 34.0938 40.2344 32.3906 40.2344C29.8828 40.2344 27.957 39.4766 26.6133 37.9609C25.2695 36.4375 24.5977 34.2617 24.5977 31.4336C24.5977 29.6523 24.9219 28.0938 25.5703 26.7578C26.2266 25.4219 27.1719 24.3984 28.4062 23.6875C29.6406 22.9766 31.0898 22.6211 32.7539 22.6211C34.5039 22.6211 36.1211 22.9883 37.6055 23.7227L36.5977 26.0547C36.0195 25.7812 35.4062 25.543 34.7578 25.3398C34.1172 25.1289 33.4414 25.0234 32.7305 25.0234ZM50.5312 35.3477C50.5312 36.8711 49.9805 38.0664 48.8789 38.9336C47.7773 39.8008 46.2578 40.2344 44.3203 40.2344C42.3828 40.2344 40.7969 39.9336 39.5625 39.332V36.6836C40.3438 37.0508 41.1719 37.3398 42.0469 37.5508C42.9297 37.7617 43.75 37.8672 44.5078 37.8672C45.6172 37.8672 46.4336 37.6562 46.957 37.2344C47.4883 36.8125 47.7539 36.2461 47.7539 35.5352C47.7539 34.8945 47.5117 34.3516 47.0273 33.9062C46.543 33.4609 45.543 32.9336 44.0273 32.3242C42.4648 31.6914 41.3633 30.9688 40.7227 30.1562C40.082 29.3438 39.7617 28.3672 39.7617 27.2266C39.7617 25.7969 40.2695 24.6719 41.2852 23.8516C42.3008 23.0312 43.6641 22.6211 45.375 22.6211C47.0156 22.6211 48.6484 22.9805 50.2734 23.6992L49.3828 25.9844C47.8594 25.3438 46.5 25.0234 45.3047 25.0234C44.3984 25.0234 43.7109 25.2227 43.2422 25.6211C42.7734 26.0117 42.5391 26.5312 42.5391 27.1797C42.5391 27.625 42.6328 28.0078 42.8203 28.3281C43.0078 28.6406 43.3164 28.9375 43.7461 29.2188C44.1758 29.5 44.9492 29.8711 46.0664 30.332C47.3242 30.8555 48.2461 31.3438 48.832 31.7969C49.418 32.25 49.8477 32.7617 50.1211 33.332C50.3945 33.9023 50.5312 34.5742 50.5312 35.3477Z" fill="white"/>
</svg>
