<svg width="32" height="32" viewBox="0 0 32 32" fill="none" xmlns="http://www.w3.org/2000/svg">
<rect x="0.5" y="0.5" width="31" height="31" rx="7.5" fill="white" stroke="white"/>
<path d="M17.5363 17.0767L18.9738 17.7942C18.9056 18.1346 18.7215 18.4409 18.4527 18.6608C18.1839 18.8806 17.8472 19.0005 17.5 18.9998C16.3069 18.9985 15.1631 18.5239 14.3195 17.6803C13.4759 16.8367 13.0013 15.6928 13 14.4998C12.9999 14.153 13.12 13.8169 13.3398 13.5486C13.5596 13.2804 13.8656 13.0966 14.2056 13.0285L14.9231 14.466L14.3125 15.3748C14.2669 15.4432 14.2388 15.5219 14.2309 15.6037C14.2229 15.6856 14.2353 15.7682 14.2669 15.8442C14.6246 16.6944 15.301 17.3708 16.1512 17.7285C16.2274 17.7615 16.3106 17.775 16.3933 17.7678C16.4761 17.7606 16.5557 17.7329 16.625 17.6873L17.5363 17.0767ZM22.5 15.9998C22.5002 17.122 22.2099 18.2251 21.6574 19.2019C21.1048 20.1786 20.3087 20.9956 19.3467 21.5734C18.3847 22.1512 17.2894 22.4701 16.1676 22.499C15.0458 22.528 13.9355 22.266 12.945 21.7385L10.8169 22.4479C10.6407 22.5067 10.4516 22.5152 10.2708 22.4725C10.0901 22.4299 9.92474 22.3377 9.79341 22.2064C9.66207 22.075 9.56991 21.9097 9.52725 21.7289C9.48459 21.5482 9.49312 21.3591 9.55187 21.1829L10.2612 19.0548C9.79759 18.183 9.53862 17.2171 9.504 16.2304C9.46937 15.2436 9.66 14.2619 10.0614 13.3599C10.4628 12.4578 11.0645 11.659 11.8207 11.0241C12.5769 10.3893 13.4678 9.93507 14.4258 9.69595C15.3838 9.45682 16.3836 9.43908 17.3495 9.64407C18.3153 9.84906 19.2218 10.2714 20.0001 10.879C20.7783 11.4866 21.4079 12.2636 21.8411 13.1508C22.2743 14.0381 22.4996 15.0124 22.5 15.9998ZM20 17.4998C20.0001 17.4069 19.9743 17.3158 19.9255 17.2368C19.8767 17.1577 19.8068 17.0938 19.7238 17.0523L17.7238 16.0523C17.645 16.013 17.5573 15.9953 17.4696 16.0008C17.3818 16.0062 17.297 16.0348 17.2238 16.0835L16.3056 16.696C15.8842 16.4643 15.5373 16.1175 15.3056 15.696L15.9181 14.7779C15.9669 14.7047 15.9954 14.6199 16.0009 14.5321C16.0064 14.4443 15.9886 14.3566 15.9494 14.2779L14.9494 12.2779C14.9079 12.1942 14.8439 12.1238 14.7644 12.0746C14.685 12.0255 14.5934 11.9995 14.5 11.9998C13.837 11.9998 13.2011 12.2632 12.7322 12.732C12.2634 13.2008 12 13.8367 12 14.4998C12.0017 15.958 12.5816 17.3559 13.6127 18.387C14.6438 19.4181 16.0418 19.9981 17.5 19.9998C17.8283 19.9998 18.1534 19.9351 18.4567 19.8095C18.76 19.6838 19.0356 19.4997 19.2678 19.2675C19.4999 19.0354 19.6841 18.7598 19.8097 18.4565C19.9353 18.1532 20 17.8281 20 17.4998Z" fill="#F16336"/>
</svg>
