<svg width="100" height="100" viewBox="0 0 100 100" fill="none" xmlns="http://www.w3.org/2000/svg">
<circle cx="50" cy="50" r="50" fill="#F16336" fill-opacity="0.1"/>
<path d="M50.0176 36.207C50.1051 34.9945 50.5056 33.8253 51.1799 32.8137C51.8541 31.8021 52.7792 30.9826 53.8647 30.4352C54.9503 29.8878 56.1592 29.6312 57.3735 29.6905C58.5878 29.7498 59.7659 30.1229 60.793 30.7734C60.9104 30.8503 61.005 30.9573 61.0667 31.0833C61.1285 31.2093 61.1552 31.3496 61.144 31.4895C61.1328 31.6294 61.0841 31.7637 61.0031 31.8782C60.9221 31.9928 60.8117 32.0834 60.6836 32.1406C58.8982 32.9439 57.3827 34.2455 56.319 35.8891C55.2554 37.5328 54.6889 39.4485 54.6875 41.4063C54.6875 41.6348 54.6875 41.8633 54.7109 42.0879C54.7217 42.2299 54.6935 42.3721 54.6293 42.4992C54.5651 42.6263 54.4674 42.7334 54.3468 42.809C54.2261 42.8846 54.0871 42.9258 53.9448 42.9281C53.8024 42.9305 53.6621 42.8939 53.5391 42.8223C52.388 42.1639 51.4466 41.1934 50.8235 40.0229C50.2004 38.8524 49.921 37.5295 50.0176 36.207ZM71.875 56.3691C71.8778 57.262 71.6304 58.1378 71.161 58.8972C70.6915 59.6567 70.0187 60.2694 69.2188 60.666L69.1328 60.7051L61.5488 63.9356C61.4739 63.9686 61.3961 63.9947 61.3164 64.0137L48.8164 67.1387C48.6926 67.1705 48.5653 67.1869 48.4375 67.1875H28.125C27.2962 67.1875 26.5013 66.8583 25.9153 66.2722C25.3292 65.6862 25 64.8913 25 64.0625V56.25C25 55.4212 25.3292 54.6264 25.9153 54.0403C26.5013 53.4542 27.2962 53.125 28.125 53.125H33.7285L38.1465 48.7051C38.7258 48.1232 39.4147 47.6619 40.1733 47.3477C40.9319 47.0336 41.7453 46.8729 42.5664 46.875H52.3438C53.1691 46.8749 53.9837 47.0616 54.7266 47.4212C55.4696 47.7807 56.1215 48.3037 56.6335 48.951C57.1455 49.5984 57.5044 50.3532 57.6832 51.1589C57.862 51.9646 57.8561 52.8004 57.666 53.6035L65.8379 51.7246C66.5493 51.5362 67.2945 51.5137 68.0159 51.6588C68.7374 51.8039 69.416 52.1127 69.9993 52.5614C70.5825 53.0102 71.055 53.5868 71.3802 54.247C71.7054 54.9072 71.8747 55.6332 71.875 56.3691ZM68.75 56.3691C68.7498 56.1108 68.69 55.856 68.5753 55.6245C68.4607 55.3929 68.2942 55.191 68.0889 55.0342C67.8836 54.8774 67.6449 54.77 67.3913 54.7204C67.1378 54.6708 66.8762 54.6802 66.627 54.7481L66.5664 54.7637L53.4805 57.7734C53.3657 57.7991 53.2485 57.8122 53.1309 57.8125H46.875C46.4606 57.8125 46.0632 57.6479 45.7701 57.3549C45.4771 57.0618 45.3125 56.6644 45.3125 56.25C45.3125 55.8356 45.4771 55.4382 45.7701 55.1452C46.0632 54.8521 46.4606 54.6875 46.875 54.6875H52.3438C52.9654 54.6875 53.5615 54.4406 54.001 54.001C54.4406 53.5615 54.6875 52.9654 54.6875 52.3438C54.6875 51.7222 54.4406 51.126 54.001 50.6865C53.5615 50.2469 52.9654 50 52.3438 50H42.5664C42.1559 49.9987 41.7492 50.079 41.37 50.2363C40.9907 50.3935 40.6466 50.6246 40.3574 50.916L35.9375 55.334V64.0625H48.2422L60.4355 61.0137L67.8574 57.8535C68.1276 57.7112 68.3536 57.4976 68.5109 57.2359C68.6683 56.9743 68.751 56.6745 68.75 56.3691ZM57.8125 41.4063C57.8125 42.7969 58.2249 44.1563 58.9975 45.3126C59.7701 46.4689 60.8682 47.3701 62.153 47.9023C63.4378 48.4345 64.8516 48.5737 66.2155 48.3024C67.5794 48.0311 68.8323 47.3614 69.8156 46.3781C70.7989 45.3948 71.4686 44.1419 71.7399 42.778C72.0112 41.4141 71.872 40.0003 71.3398 38.7155C70.8076 37.4307 69.9064 36.3326 68.7501 35.56C67.5938 34.7874 66.2344 34.375 64.8438 34.375C62.9789 34.375 61.1905 35.1158 59.8719 36.4344C58.5533 37.753 57.8125 39.5415 57.8125 41.4063Z" fill="#F16336"/>
</svg>
