<svg width="100" height="100" viewBox="0 0 100 100" fill="none" xmlns="http://www.w3.org/2000/svg">
<circle cx="50" cy="50" r="50" fill="#F16336" fill-opacity="0.1"/>
<path d="M45.3125 45.3125H54.6875V54.6875H45.3125V45.3125ZM71.875 54.6875C71.875 55.1019 71.7104 55.4993 71.4174 55.7924C71.1243 56.0854 70.7269 56.25 70.3125 56.25H67.1875V64.0625C67.1875 64.8913 66.8583 65.6862 66.2722 66.2722C65.6862 66.8583 64.8913 67.1875 64.0625 67.1875H56.25V70.3125C56.25 70.7269 56.0854 71.1243 55.7924 71.4174C55.4993 71.7104 55.1019 71.875 54.6875 71.875C54.2731 71.875 53.8757 71.7104 53.5826 71.4174C53.2896 71.1243 53.125 70.7269 53.125 70.3125V67.1875H46.875V70.3125C46.875 70.7269 46.7104 71.1243 46.4174 71.4174C46.1243 71.7104 45.7269 71.875 45.3125 71.875C44.8981 71.875 44.5007 71.7104 44.2076 71.4174C43.9146 71.1243 43.75 70.7269 43.75 70.3125V67.1875H35.9375C35.1087 67.1875 34.3138 66.8583 33.7278 66.2722C33.1417 65.6862 32.8125 64.8913 32.8125 64.0625V56.25H29.6875C29.2731 56.25 28.8757 56.0854 28.5826 55.7924C28.2896 55.4993 28.125 55.1019 28.125 54.6875C28.125 54.2731 28.2896 53.8757 28.5826 53.5826C28.8757 53.2896 29.2731 53.125 29.6875 53.125H32.8125V46.875H29.6875C29.2731 46.875 28.8757 46.7104 28.5826 46.4174C28.2896 46.1243 28.125 45.7269 28.125 45.3125C28.125 44.8981 28.2896 44.5007 28.5826 44.2076C28.8757 43.9146 29.2731 43.75 29.6875 43.75H32.8125V35.9375C32.8125 35.1087 33.1417 34.3138 33.7278 33.7278C34.3138 33.1417 35.1087 32.8125 35.9375 32.8125H43.75V29.6875C43.75 29.2731 43.9146 28.8757 44.2076 28.5826C44.5007 28.2896 44.8981 28.125 45.3125 28.125C45.7269 28.125 46.1243 28.2896 46.4174 28.5826C46.7104 28.8757 46.875 29.2731 46.875 29.6875V32.8125H53.125V29.6875C53.125 29.2731 53.2896 28.8757 53.5826 28.5826C53.8757 28.2896 54.2731 28.125 54.6875 28.125C55.1019 28.125 55.4993 28.2896 55.7924 28.5826C56.0854 28.8757 56.25 29.2731 56.25 29.6875V32.8125H64.0625C64.8913 32.8125 65.6862 33.1417 66.2722 33.7278C66.8583 34.3138 67.1875 35.1087 67.1875 35.9375V43.75H70.3125C70.7269 43.75 71.1243 43.9146 71.4174 44.2076C71.7104 44.5007 71.875 44.8981 71.875 45.3125C71.875 45.7269 71.7104 46.1243 71.4174 46.4174C71.1243 46.7104 70.7269 46.875 70.3125 46.875H67.1875V53.125H70.3125C70.7269 53.125 71.1243 53.2896 71.4174 53.5826C71.7104 53.8757 71.875 54.2731 71.875 54.6875ZM57.8125 43.75C57.8125 43.3356 57.6479 42.9382 57.3549 42.6451C57.0618 42.3521 56.6644 42.1875 56.25 42.1875H43.75C43.3356 42.1875 42.9382 42.3521 42.6451 42.6451C42.3521 42.9382 42.1875 43.3356 42.1875 43.75V56.25C42.1875 56.6644 42.3521 57.0618 42.6451 57.3549C42.9382 57.6479 43.3356 57.8125 43.75 57.8125H56.25C56.6644 57.8125 57.0618 57.6479 57.3549 57.3549C57.6479 57.0618 57.8125 56.6644 57.8125 56.25V43.75Z" fill="#F16336"/>
</svg>
