<svg width="100" height="100" viewBox="0 0 100 100" fill="none" xmlns="http://www.w3.org/2000/svg">
<circle cx="50" cy="50" r="50" fill="#F16336" fill-opacity="0.1"/>
<path d="M51.5625 50V64.0625H53.832C54.4454 64.0703 55.0384 63.8421 55.4883 63.4252C55.9383 63.0083 56.211 62.4345 56.25 61.8223C56.2682 61.3965 56.17 60.9739 55.9659 60.5998C55.7618 60.2257 55.4596 59.9144 55.0918 59.6992C54.9712 59.6305 54.8706 59.5314 54.8 59.4119C54.7294 59.2923 54.6913 59.1564 54.6895 59.0176V57.3008C54.6891 57.1771 54.7182 57.0551 54.7742 56.9448C54.8303 56.8345 54.9117 56.7391 55.0118 56.6665C55.112 56.5938 55.2279 56.546 55.3501 56.5269C55.4723 56.5078 55.5973 56.518 55.7148 56.5566C56.7747 56.9298 57.6943 57.6197 58.349 58.5329C59.0037 59.4461 59.3619 60.5385 59.375 61.6621C59.4062 64.7012 56.8359 67.1875 53.791 67.1875H51.5625V70.3125C51.5625 70.7269 51.3979 71.1243 51.1049 71.4174C50.8118 71.7104 50.4144 71.875 50 71.875C49.5856 71.875 49.1882 71.7104 48.8951 71.4174C48.6021 71.1243 48.4375 70.7269 48.4375 70.3125V67.1875H43.75C43.5358 67.188 43.3238 67.1444 43.1271 67.0595C42.9305 66.9746 42.7534 66.8501 42.6069 66.6939C42.4603 66.5376 42.3475 66.353 42.2754 66.1513C42.2032 65.9496 42.1733 65.7352 42.1875 65.5215C42.2221 65.119 42.408 64.7446 42.7077 64.4739C43.0075 64.2031 43.3988 64.0561 43.8027 64.0625H48.4375V50H45.4023C43.7227 50 42.2773 51.2891 42.1914 52.9668C42.1532 53.7166 42.3861 54.4551 42.8477 55.0472C43.3093 55.6394 43.9686 56.0455 44.7051 56.1914C44.8783 56.2287 45.0334 56.3247 45.1441 56.4631C45.2547 56.6016 45.3142 56.774 45.3125 56.9512V58.5938C45.3125 58.801 45.2302 58.9997 45.0837 59.1462C44.9372 59.2927 44.7385 59.375 44.5312 59.375C43.5934 59.3753 42.665 59.1879 41.8007 58.824C40.9363 58.4601 40.1535 57.9269 39.4984 57.2559C38.8432 56.5849 38.3288 55.7896 37.9857 54.9168C37.6425 54.044 37.4773 53.1114 37.5 52.1738C37.5918 48.3359 40.8203 45.3125 44.6641 45.3125H48.4375V29.6875C48.4375 29.2731 48.6021 28.8757 48.8951 28.5826C49.1882 28.2896 49.5856 28.125 50 28.125C50.4144 28.125 50.8118 28.2896 51.1049 28.5826C51.3979 28.8757 51.5625 29.2731 51.5625 29.6875V45.3125H57.8125C58.2365 45.313 58.6563 45.2273 59.0461 45.0604C59.4359 44.8936 59.7877 44.6492 60.0801 44.342C60.3724 44.0349 60.5992 43.6714 60.7466 43.2738C60.894 42.8762 60.959 42.4528 60.9375 42.0293C60.8516 40.3516 59.4023 39.0625 57.7227 39.0625H55.4688C55.2615 39.0625 55.0628 38.9802 54.9163 38.8337C54.7698 38.6872 54.6875 38.4885 54.6875 38.2812V33.5938C54.6875 33.3865 54.7698 33.1878 54.9163 33.0413C55.0628 32.8948 55.2615 32.8125 55.4688 32.8125H58.4414C63.25 32.8125 67.2695 36.748 67.1855 41.5547C67.1466 43.8077 66.2243 45.9553 64.6173 47.535C63.0103 49.1146 60.8471 49.9998 58.5938 50H51.5625ZM43.0977 39.0625H44.5312C44.7385 39.0625 44.9372 38.9802 45.0837 38.8337C45.2302 38.6872 45.3125 38.4885 45.3125 38.2812V33.5938C45.3125 33.3865 45.2302 33.1878 45.0837 33.0413C44.9372 32.8948 44.7385 32.8125 44.5312 32.8125H37.5C35.428 32.8125 33.4409 33.6356 31.9757 35.1007C30.5106 36.5659 29.6875 38.553 29.6875 40.625V42.1875C29.6875 42.6019 29.8521 42.9993 30.1451 43.2924C30.4382 43.5854 30.8356 43.75 31.25 43.75H35.9375C37.4576 43.75 38.9447 43.3065 40.2165 42.4739C41.4883 41.6413 42.4896 40.4557 43.0977 39.0625Z" fill="#F16336"/>
</svg>
