<svg width="100" height="100" viewBox="0 0 100 100" fill="none" xmlns="http://www.w3.org/2000/svg">
<circle cx="50" cy="50" r="50" fill="#F16336" fill-opacity="0.1"/>
<path d="M69.9863 52.551C69.4754 52.1572 68.8896 51.8715 68.2648 51.7114C67.6399 51.5512 66.9889 51.5199 66.3516 51.6193C70.0195 47.9162 71.875 44.2346 71.875 40.6252C71.875 35.4553 67.7168 31.2502 62.6055 31.2502C61.2492 31.2417 59.9076 31.5301 58.6747 32.0953C57.4418 32.6604 56.3475 33.4886 55.4688 34.5217C54.59 33.4886 53.4957 32.6604 52.2628 32.0953C51.0299 31.5301 49.6883 31.2417 48.332 31.2502C43.2207 31.2502 39.0625 35.4553 39.0625 40.6252C39.0625 42.7736 39.6953 44.8615 41.0273 47.0705C39.9364 47.3469 38.9408 47.9139 38.1465 48.7111L33.7285 53.1252H28.125C27.2962 53.1252 26.5013 53.4544 25.9153 54.0405C25.3292 54.6265 25 55.4214 25 56.2502V64.0627C25 64.8915 25.3292 65.6863 25.9153 66.2724C26.5013 66.8584 27.2962 67.1877 28.125 67.1877H48.4375C48.5653 67.1877 48.6925 67.172 48.8164 67.1408L61.3164 64.0158C61.3961 63.9968 61.4739 63.9707 61.5488 63.9377L69.1406 60.7072L69.2266 60.6681C69.9562 60.3036 70.581 59.7592 71.0421 59.0864C71.5032 58.4136 71.7855 57.6345 71.8623 56.8225C71.939 56.0105 71.8078 55.1923 71.481 54.445C71.1542 53.6977 70.6425 53.0459 69.9941 52.551H69.9863ZM67.8574 57.8537L60.4355 61.0139L48.2422 64.0627H35.9375V55.3342L40.3574 50.9162C40.6466 50.6248 40.9907 50.3937 41.37 50.2364C41.7492 50.0792 42.1559 49.9989 42.5664 50.0002H52.3438C52.9654 50.0002 53.5615 50.2471 54.001 50.6867C54.4406 51.1262 54.6875 51.7223 54.6875 52.3439C54.6875 52.9655 54.4406 53.5617 54.001 54.0012C53.5615 54.4408 52.9654 54.6877 52.3438 54.6877H46.875C46.4606 54.6877 46.0632 54.8523 45.7701 55.1453C45.4771 55.4384 45.3125 55.8358 45.3125 56.2502C45.3125 56.6646 45.4771 57.062 45.7701 57.355C46.0632 57.6481 46.4606 57.8127 46.875 57.8127H53.125C53.2426 57.8123 53.3598 57.7993 53.4746 57.7736L66.5605 54.7639L66.6211 54.7482C67.0206 54.6373 67.4469 54.6781 67.8182 54.8626C68.1894 55.0472 68.4793 55.3625 68.632 55.748C68.7847 56.1334 68.7895 56.5617 68.6454 56.9504C68.5013 57.3392 68.2186 57.6609 67.8516 57.8537H67.8574Z" fill="#F16336"/>
</svg>
