<svg width="33" height="32" viewBox="0 0 33 32" fill="none" xmlns="http://www.w3.org/2000/svg">
<path d="M18.2953 1.12487C17.9641 0.437451 17.2642 0 16.4955 0C15.7268 0 15.0332 0.437451 14.6957 1.12487L10.6774 9.3927L1.70335 10.7176C0.953426 10.83 0.328493 11.355 0.0972674 12.0736C-0.133958 12.7923 0.0535219 13.586 0.590964 14.1172L7.10277 20.5602L5.56543 29.6654C5.44044 30.4153 5.75291 31.1778 6.3716 31.6215C6.99028 32.0652 7.80894 32.1214 8.48387 31.7652L16.5018 27.4844L24.5197 31.7652C25.1946 32.1214 26.0132 32.0714 26.6319 31.6215C27.2506 31.1715 27.5631 30.4153 27.4381 29.6654L25.8945 20.5602L32.4063 14.1172C32.9438 13.586 33.1375 12.7923 32.9 12.0736C32.6625 11.355 32.0438 10.83 31.2939 10.7176L22.3136 9.3927L18.2953 1.12487Z" fill="#F16336"/>
</svg>
